<svg width="20.796753" height="20.796875" viewBox="0 0 20.7968 20.7969" fill="none" xmlns="http://www.w3.org/2000/svg" xmlns:xlink="http://www.w3.org/1999/xlink">
	<desc>
			Created with Pixso.
	</desc>
	<defs>
		<linearGradient id="paint_linear_13_913_0" x1="10.365152" y1="1.003120" x2="10.365152" y2="19.355923" gradientUnits="userSpaceOnUse">
			<stop stop-color="#8359A2"/>
			<stop offset="1.000000" stop-color="#794E9B"/>
		</linearGradient>
	</defs>
	<rect id="Rectangle" width="20.796759" height="20.796757" fill="url(#pattern_13_9110)" fill-opacity="1.000000"/>
	<path id="Vector" d="M1.52649 10.0073C1.52649 11.7495 2.0127 13.3701 2.87695 14.7476C2.75537 15.7737 1.17542 19.3525 1.17542 19.3525C1.17542 19.3525 4.59204 18.2451 6.09106 17.8401C7.40088 18.5828 8.92688 19.0149 10.5475 19.0149C15.5171 19.0149 19.5549 14.9771 19.5549 10.0073C19.5549 5.03784 15.5171 1 10.5475 1C5.57788 1 1.52649 5.03784 1.52649 10.0073Z" fill="url(#paint_linear_13_913_0)" fill-opacity="1.000000" fill-rule="nonzero"/>
	<path id="Vector" d="M5.60486 7.77905C5.60486 7.26587 5.76697 6.6582 6.13147 6.09106C6.32056 5.79395 6.56372 5.52393 6.84729 5.30786C6.99585 5.19971 7.11731 5.0647 7.25244 4.95679C7.41443 4.82178 7.58997 4.74072 7.80603 4.75415C7.96814 4.76758 8.10315 4.83521 8.22473 4.94312C8.38672 5.07837 8.53528 5.24023 8.64331 5.41577C8.87292 5.76709 9.11597 6.11816 9.30505 6.49609C9.38611 6.67188 9.45361 6.84741 9.48059 7.0498C9.53467 7.41455 9.41309 7.71167 9.14307 7.96826C9.00793 8.08984 8.88647 8.19775 8.75134 8.31934C8.67041 8.38672 8.58936 8.44092 8.5083 8.49487C8.31921 8.62988 8.1842 8.80542 8.15723 9.04858C8.14368 9.19702 8.15723 9.35913 8.19775 9.50781C8.27869 9.79126 8.42725 10.0613 8.58936 10.3044C8.87292 10.7231 9.19702 11.1147 9.53467 11.4792C9.80469 11.7629 10.0883 12.0466 10.4125 12.2627C10.6014 12.3977 10.8041 12.5056 11.0336 12.5461C11.3037 12.6001 11.5468 12.5461 11.7494 12.3572C11.7899 12.3301 11.8169 12.2896 11.8574 12.249C12.033 12.0466 12.249 11.8708 12.4515 11.709C12.7892 11.4387 13.1538 11.4119 13.532 11.574C13.7886 11.6819 14.0181 11.844 14.2207 12.0195C14.4773 12.2356 14.7338 12.4651 14.9769 12.6948C15.0984 12.8027 15.193 12.9243 15.2605 13.0593C15.4496 13.397 15.4226 13.6941 15.1389 13.9641C14.9094 14.1936 14.6663 14.4097 14.4097 14.6123C13.9775 14.95 13.4915 15.1526 12.9513 15.2336C12.303 15.3281 11.6819 15.2471 11.0741 15.0176C10.48 14.8015 9.93982 14.4773 9.42664 14.0857C8.77844 13.5859 8.19775 13.0054 7.65747 12.384C7.3064 11.979 6.96875 11.5469 6.67175 11.0876C6.32056 10.5476 6.02344 9.9939 5.82092 9.38623C5.69934 8.91357 5.60486 8.42725 5.60486 7.77905Z" fill="#FFFFFF" fill-opacity="1.000000" fill-rule="nonzero"/>
</svg>
