<svg width="20.643433" height="20.643555" viewBox="0 0 20.6434 20.6436" fill="none" xmlns="http://www.w3.org/2000/svg" xmlns:xlink="http://www.w3.org/1999/xlink">
	<desc>
			Created with Pixso.
	</desc>
	<defs>
		<linearGradient id="paint_linear_13_920_0" x1="10.288733" y1="0.995773" x2="10.288733" y2="19.213264" gradientUnits="userSpaceOnUse">
			<stop stop-color="#11BC3C"/>
			<stop offset="1.000000" stop-color="#27B64A"/>
		</linearGradient>
	</defs>
	<rect id="Rectangle" width="20.643446" height="20.643446" fill="url(#pattern_13_9180)" fill-opacity="1.000000"/>
	<path id="Vector" d="M1.51526 9.93359C1.51526 11.6628 1.9978 13.2715 2.85571 14.6387C2.73511 15.6575 1.16675 19.2097 1.16675 19.2097C1.16675 19.2097 4.55823 18.1106 6.04614 17.7085C7.34631 18.4458 8.86108 18.8748 10.4697 18.8748C15.4027 18.8748 19.4108 14.8667 19.4108 9.93359C19.4108 5.00073 15.4027 0.992676 10.4697 0.992676C5.53674 0.992676 1.51526 5.00073 1.51526 9.93359Z" fill="url(#paint_linear_13_920_0)" fill-opacity="1.000000" fill-rule="nonzero"/>
	<path id="Vector" d="M5.56348 7.72168C5.56348 7.21216 5.72437 6.60913 6.0863 6.04614C6.27393 5.75122 6.51526 5.48315 6.79675 5.26855C6.94421 5.16138 7.06482 5.02734 7.19885 4.92017C7.35974 4.78589 7.53394 4.70557 7.74841 4.71899C7.9093 4.73242 8.04333 4.79932 8.16406 4.90674C8.32483 5.04077 8.47229 5.20166 8.57959 5.37573C8.8075 5.72437 9.04871 6.07275 9.23645 6.44824C9.31677 6.62256 9.38391 6.79663 9.41064 6.9978C9.46423 7.35962 9.34363 7.65454 9.07556 7.90942C8.94153 8.03003 8.8208 8.13721 8.68677 8.25781C8.60632 8.32495 8.526 8.37842 8.44556 8.43213C8.25781 8.56616 8.12378 8.74048 8.09705 8.98169C8.08362 9.12915 8.09705 9.29004 8.13721 9.4375C8.21765 9.71899 8.36511 9.98706 8.526 10.2283C8.8075 10.6438 9.12915 11.0327 9.46423 11.3945C9.73242 11.676 10.0139 11.9575 10.3356 12.1721C10.5233 12.3062 10.7244 12.4133 10.9523 12.4536C11.2203 12.5071 11.4615 12.4536 11.6627 12.2659C11.7029 12.239 11.7297 12.199 11.7699 12.1587C11.9442 11.9575 12.1587 11.7832 12.3597 11.6226C12.6948 11.3542 13.0568 11.3276 13.4321 11.4885C13.6868 11.5957 13.9147 11.7566 14.1157 11.9307C14.3705 12.1453 14.6251 12.373 14.8665 12.6011C14.9871 12.7083 15.0809 12.8289 15.1479 12.9629C15.3356 13.2981 15.3088 13.593 15.0273 13.8611C14.7994 14.0889 14.5581 14.3035 14.3035 14.5044C13.8745 14.8396 13.3918 15.0408 12.8557 15.1211C12.2123 15.2148 11.5957 15.1345 10.9924 14.9067C10.4026 14.6921 9.86646 14.3704 9.35706 13.9817C8.71362 13.4858 8.13721 12.9094 7.60095 12.2927C7.25244 11.8906 6.91736 11.4617 6.62244 11.0059C6.27393 10.4697 5.979 9.92017 5.77795 9.31689C5.65735 8.84766 5.56348 8.36499 5.56348 7.72168Z" fill="#FFFFFF" fill-opacity="1.000000" fill-rule="nonzero"/>
</svg>
