<svg width="23.499634" height="40.000000" viewBox="0 0 23.4996 40" fill="none" xmlns="http://www.w3.org/2000/svg" xmlns:xlink="http://www.w3.org/1999/xlink">
	<desc>
			Created with Pixso.
	</desc>
	<defs/>
	<path id="Vector" d="M0.638062 21.5608L18.4385 39.361C18.8502 39.7731 19.3998 40 19.9858 40C20.5718 40 21.1215 39.7729 21.5331 39.361L22.8441 38.0504C23.697 37.1964 23.697 35.8085 22.8441 34.9558L7.89648 20.0083L22.8606 5.04419C23.2723 4.6322 23.4996 4.08289 23.4996 3.49719C23.4996 2.91089 23.2723 2.36157 22.8606 1.94922L21.5497 0.639038C21.1377 0.226929 20.5884 0 20.0024 0C19.4164 0 18.8668 0.226929 18.4551 0.639038L0.638062 18.4554C0.225342 18.8688 -0.00128174 19.4207 0 20.0073C-0.00128174 20.5962 0.225342 21.1478 0.638062 21.5608Z" fill="#FFFFFF" fill-opacity="1.000000" fill-rule="nonzero"/>
</svg>
