<svg width="19.958008" height="20.000031" viewBox="0 0 19.958 20" fill="none" xmlns="http://www.w3.org/2000/svg" xmlns:xlink="http://www.w3.org/1999/xlink">
	<desc>
			Created with Pixso.
	</desc>
	<defs/>
	<path id="Vector" d="M19.4347 14.678L16.6436 11.8869C15.6467 10.8901 13.9523 11.2889 13.5535 12.5847C13.2544 13.4818 12.2577 13.9803 11.3605 13.7809C9.36694 13.2824 6.67554 10.6908 6.17712 8.59747C5.87805 7.70029 6.4762 6.70349 7.37329 6.40448C8.66919 6.00577 9.06787 4.31119 8.07104 3.31439L5.28003 0.523315C4.48254 -0.174438 3.28638 -0.174438 2.58862 0.523315L0.694702 2.41727C-1.19922 4.41086 0.894043 9.69394 5.57898 14.3789C10.264 19.0639 15.5471 21.257 17.5408 19.2633L19.4347 17.3694C20.1324 16.5719 20.1324 15.3757 19.4347 14.678Z" fill="#FFFFFF" fill-opacity="1.000000" fill-rule="nonzero"/>
</svg>
